<mxfile host="app.diagrams.net" modified="2024-07-23T08:05:59.092Z" agent="Mozilla/5.0 (Macintosh; Intel Mac OS X 10_15_7) AppleWebKit/537.36 (KHTML, like Gecko) Chrome/126.0.0.0 Safari/537.36" version="24.7.3" etag="Ul0iw4Z-h1skcLdzxI7r" type="github">
  <diagram name="Page-1" id="NrWC7gv7TJmJxPSR4iG9">
    <mxGraphModel>
      <root>
        <mxCell id="0" />
        <mxCell id="1" parent="0" />
      </root>
    </mxGraphModel>
  </diagram>
</mxfile>
